# Blender 4.4.3
# www.blender.org
mtllib revolver-python.mtl
o body_Cube.002
v 0.007389 0.052333 0.046561
v 0.007389 0.052333 -0.125767
v 0.007389 0.037947 0.051764
v 0.007389 0.044786 -0.012763
v 0.007389 0.005946 0.060124
v 0.007389 0.024549 -0.012152
v 0.007389 0.029812 0.063376
v 0.007389 0.015315 0.065235
v 0.007389 0.004987 -0.004445
v 0.007389 0.044786 0.003370
v 0.007389 0.014033 0.003370
v 0.007389 0.052333 0.038190
v 0.007389 0.044786 0.038190
v 0.007389 0.014033 0.038190
v 0.007389 0.004987 0.046561
v 0.007389 0.027303 0.080659
v 0.007389 0.019589 0.074062
v 0.007389 -0.006843 0.056769
v 0.009124 -0.059221 0.122294
v 0.009124 -0.023424 0.109826
v 0.009124 -0.059221 0.076618
v 0.009124 -0.029885 0.076099
v 0.009124 -0.009121 0.067419
v 0.009124 0.002418 0.097365
v 0.009124 0.014366 0.058727
v 0.009124 0.029343 0.081275
v 0.009124 -0.010002 0.052966
v 0.009124 0.004384 0.054201
v 0.005920 0.004384 0.053231
v 0.005920 0.004384 0.057305
v 0.005920 -0.016371 0.047911
v 0.005920 -0.019336 0.051272
v 0.005920 -0.019000 0.018866
v 0.005920 -0.016482 0.021285
v 0.005920 0.007449 0.013277
v 0.005920 0.007438 0.016746
v 0.007389 0.044786 -0.123744
v 0.004148 0.052333 -0.112946
v 0.004148 0.052333 -0.121941
v 0.004148 0.053209 -0.113038
v 0.004148 0.055902 -0.121849
v 0.006367 0.038419 -0.126444
v 0.006367 0.038419 -0.008582
v 0.005526 0.038419 -0.126444
v 0.005526 0.038419 -0.089632
v 0.003751 0.028300 -0.116084
v 0.003751 0.028300 -0.008582
v 0.002665 0.028300 -0.116979
v 0.007389 0.054505 0.039966
v 0.007389 0.055902 0.046561
v -0.007389 0.052333 0.046561
v -0.007389 0.052333 -0.125767
v -0.007389 0.004987 -0.004445
v -0.007389 0.037947 0.051764
v -0.007389 0.044786 -0.012763
v -0.007389 0.024549 -0.012152
v -0.007389 0.005946 0.060124
v -0.007389 0.029812 0.063376
v -0.007389 0.015315 0.065235
v -0.007389 0.052333 0.038190
v -0.007389 0.014033 0.003370
v -0.007389 0.044786 0.003370
v -0.007389 0.014033 0.038190
v -0.007389 0.044786 0.038190
v -0.007389 0.004987 0.046561
v -0.007389 0.027303 0.080659
v -0.007389 0.019589 0.074062
v -0.007389 -0.006843 0.056769
v -0.009124 -0.059221 0.122294
v -0.009124 -0.023424 0.109826
v -0.009124 -0.059221 0.076618
v -0.009124 -0.029885 0.076099
v -0.009124 -0.009121 0.067419
v -0.009124 0.002418 0.097365
v -0.009124 0.014366 0.058727
v -0.009124 0.029343 0.081275
v -0.009124 -0.010002 0.052966
v -0.009124 0.004384 0.054201
v -0.005920 0.004384 0.053231
v -0.005920 0.004384 0.057305
v -0.005920 -0.016371 0.047911
v -0.005920 -0.019336 0.051272
v -0.005920 -0.019000 0.018866
v -0.005920 -0.016482 0.021285
v -0.005920 0.007449 0.013277
v -0.005920 0.007438 0.016746
v -0.007389 0.044786 -0.123744
v -0.004148 0.052333 -0.112946
v -0.004148 0.052333 -0.121941
v -0.004148 0.053209 -0.113038
v -0.004148 0.055902 -0.121849
v -0.000000 0.044786 -0.126444
v -0.000000 0.044786 -0.008582
v -0.006367 0.038419 -0.126444
v -0.006367 0.038419 -0.008582
v -0.000000 0.032051 -0.126444
v -0.000000 0.032051 -0.008582
v -0.000000 0.043945 -0.126444
v -0.005526 0.038419 -0.126444
v -0.000000 0.032893 -0.126444
v -0.000000 0.043945 -0.089632
v -0.005526 0.038419 -0.089632
v -0.000000 0.032893 -0.089632
v -0.000000 0.032051 -0.116084
v -0.000000 0.032051 -0.008582
v -0.003751 0.028300 -0.116084
v -0.003751 0.028300 -0.008582
v -0.000000 0.024549 -0.116084
v -0.000000 0.024549 -0.008582
v -0.000000 0.030965 -0.116979
v -0.002665 0.028300 -0.116979
v -0.000000 0.025635 -0.116979
v -0.007389 0.054505 0.039966
v -0.007389 0.055902 0.046561
vn -0.0000 -0.0302 -0.9995
vn 1.0000 -0.0000 -0.0000
vn -0.0000 -1.0000 -0.0000
vn -0.0000 -0.6533 -0.7571
vn -0.0000 -0.4789 0.8779
vn -0.0000 1.0000 -0.0000
vn -0.0000 0.8190 0.5738
vn -0.0000 -0.2537 0.9673
vn -0.0000 -0.6499 0.7600
vn -0.0000 0.9896 0.1437
vn -0.0000 -0.9000 0.4358
vn -0.0000 -0.2589 -0.9659
vn -0.0000 -0.2465 0.9691
vn -0.0000 1.0000 -0.0042
vn -0.0000 0.2483 -0.9687
vn -0.0000 0.1864 0.9825
vn -0.0000 -0.9999 -0.0104
vn -0.0000 -0.2067 -0.9784
vn -0.0000 -0.3666 -0.9304
vn -0.0000 -0.0000 1.0000
vn -0.0000 0.9563 0.2923
vn -0.0000 0.1038 0.9946
vn -0.0000 0.0258 -0.9997
vn -0.0000 -0.0000 -1.0000
vn -0.7071 -0.7071 -0.0000
vn -0.7071 0.7071 -0.0000
vn -0.0000 0.9782 -0.2077
vn -1.0000 -0.0000 -0.0000
vn -0.0000 0.6330 -0.7741
vn 0.7071 -0.7071 -0.0000
vn 0.7071 0.7071 -0.0000
vn -0.0000 0.3401 0.9404
vn -0.0000 -0.3857 -0.9226
vn -0.0000 0.3289 0.9444
vn -0.0000 -0.0177 -0.9998
vn -0.0000 0.5130 0.8584
vn -0.0000 0.8330 -0.5533
vn -0.0000 0.0855 -0.9963
vn -0.0000 -0.9981 0.0608
vn -0.0000 0.4130 -0.9108
vn -0.0000 0.4343 0.9007
vn 0.5366 0.5366 -0.6512
vn 0.5366 -0.5366 -0.6512
vn -0.5366 0.5366 -0.6512
vn -0.5366 -0.5366 -0.6512
vn 0.7072 -0.7071 -0.0000
vn -0.7072 -0.7071 -0.0000
s 1
usemtl metal_dark
f 6//1 56//1 55//1 4//1
f 14//2 13//2 3//2 5//2
f 13//2 12//2 1//2 3//2
f 15//3 65//3 53//3 9//3
f 15//2 14//2 5//2
f 18//4 68//4 65//4 15//4
f 5//2 3//2 7//2 8//2
f 57//5 5//5 8//5 59//5
f 2//6 52//6 60//6 12//6
f 8//2 7//2 16//2 17//2
f 3//7 54//7 58//7 7//7
f 68//8 18//8 5//8 57//8
f 15//2 5//2 18//2
f 9//2 6//2 11//2
f 4//2 2//2 12//2 10//2
f 6//2 4//2 10//2 11//2
f 9//2 11//2 14//2 15//2
f 10//2 12//2 13//2
f 67//9 17//9 16//9 66//9
f 58//10 66//10 16//10 7//10
f 17//11 67//11 59//11 8//11
f 37//12 87//12 52//12 2//12
f 80//13 82//13 32//13 30//13
f 29//2 30//2 32//2 31//2
f 34//14 84//14 81//14 31//14
f 31//15 81//15 79//15 29//15
f 36//16 86//16 84//16 34//16
f 82//17 83//17 33//17 32//17
f 31//2 32//2 33//2 34//2
f 83//18 85//18 35//18 33//18
f 9//19 53//19 56//19 6//19
f 34//2 33//2 35//2 36//2
f 63//6 14//6 11//6 61//6
f 61//20 11//20 10//20 62//20
f 62//3 10//3 13//3 64//3
f 55//3 87//3 37//3 4//3
f 38//2 39//2 41//2 40//2
f 41//21 91//21 90//21 40//21
f 2//2 4//2 37//2
f 40//22 90//22 88//22 38//22
f 89//23 91//23 41//23 39//23
f 64//24 13//24 14//24 63//24
f 98//25 44//25 45//25 101//25
f 44//26 100//26 103//26 45//26
f 114//27 50//27 49//27 113//27
f 1//2 12//2 49//2 50//2
f 63//28 57//28 54//28 64//28
f 64//28 54//28 51//28 60//28
f 60//29 113//29 49//29 12//29
f 65//28 57//28 63//28
f 57//28 59//28 58//28 54//28
f 59//28 67//28 66//28 58//28
f 65//28 68//28 57//28
f 53//28 61//28 56//28
f 55//28 62//28 60//28 52//28
f 56//28 61//28 62//28 55//28
f 53//28 65//28 63//28 61//28
f 62//28 64//28 60//28
f 79//28 81//28 82//28 80//28
f 81//28 84//28 83//28 82//28
f 84//28 86//28 85//28 83//28
f 88//28 90//28 91//28 89//28
f 55//28 52//28 87//28
f 98//30 101//30 102//30 99//30
f 99//31 102//31 103//31 100//31
f 114//20 51//20 1//20 50//20
f 51//28 114//28 113//28 60//28
f 51//32 54//32 3//32 1//32
f 103//24 102//24 101//24 45//24
usemtl metal_copper
f 72//33 73//33 23//33 22//33
f 69//34 19//34 20//34 70//34
f 21//2 22//2 20//2 19//2
f 21//35 71//35 72//35 22//35
f 19//3 69//3 71//3 21//3
f 26//36 76//36 74//36 24//36
f 20//2 22//2 23//2 24//2
f 24//2 23//2 25//2 26//2
f 25//37 75//37 76//37 26//37
f 25//2 23//2 27//2 28//2
f 77//38 78//38 28//38 27//38
f 73//39 77//39 27//39 23//39
f 28//40 78//40 75//40 25//40
f 71//28 69//28 70//28 72//28
f 70//28 74//28 73//28 72//28
f 74//28 76//28 75//28 73//28
f 75//28 78//28 77//28 73//28
f 24//41 74//41 70//41 20//41
usemtl metal
f 47//31 46//31 104//31 105//31
f 109//30 108//30 46//30 47//30
f 46//42 48//42 110//42 104//42
f 108//43 112//43 48//43 46//43
f 107//26 105//26 104//26 106//26
f 109//25 107//25 106//25 108//25
f 106//44 104//44 110//44 111//44
f 108//45 106//45 111//45 112//45
f 112//24 111//24 110//24 48//24
usemtl metal_light
f 43//31 42//31 92//31 93//31
f 92//24 42//24 44//24 98//24
f 97//46 96//46 42//46 43//46
f 42//24 96//24 100//24 44//24
f 95//26 93//26 92//26 94//26
f 92//24 98//24 99//24 94//24
f 97//47 95//47 94//47 96//47
f 94//24 99//24 100//24 96//24
o revolver_Cube.004
v 0.010839 0.018571 0.037683
v 0.010839 0.018571 0.004097
v 0.015329 0.029410 0.037683
v 0.015329 0.029410 0.004097
v 0.010839 0.040249 0.037683
v 0.010839 0.040249 0.004097
v 0.000000 0.014081 0.037683
v -0.000000 0.014081 0.004097
v -0.010839 0.018571 0.037683
v -0.010839 0.018571 0.004097
v -0.015329 0.029410 0.037683
v -0.015329 0.029410 0.004097
v -0.010839 0.040249 0.037683
v -0.010839 0.040249 0.004097
v -0.000000 0.044739 0.037683
v -0.000000 0.044739 0.004097
vn 0.3827 -0.9239 -0.0000
vn 0.9239 -0.3827 -0.0000
vn 0.9239 0.3827 -0.0000
vn 0.3827 0.9239 -0.0000
vn -0.3827 -0.9239 -0.0000
vn -0.9239 -0.3827 -0.0000
vn -0.9239 0.3827 -0.0000
vn -0.3827 0.9239 -0.0000
vn -0.0000 -0.0000 -1.0000
vn -0.0000 -0.0000 1.0000
s 1
usemtl metal
f 121//48 122//48 116//48 115//48
f 115//49 116//49 118//49 117//49
f 117//50 118//50 120//50 119//50
f 119//51 120//51 130//51 129//51
f 121//52 123//52 124//52 122//52
f 123//53 125//53 126//53 124//53
f 125//54 127//54 128//54 126//54
f 127//55 129//55 130//55 128//55
f 118//56 116//56 130//56 120//56
f 124//56 126//56 128//56 122//56
f 122//56 128//56 130//56 116//56
f 123//57 129//57 127//57 125//57
f 115//57 117//57 119//57 121//57
f 121//57 119//57 129//57 123//57
